# xmcd
#
# Track frame offsets:
#	150
#	10719
#	19349
#	30827
#	42811
#	53878
#	64018
#	75784
#	84243
#	96276
#	106209
#	116788
#	126607
#	136965
#	146523
#	158907
#	169843
#	179552
#	189708
#	201267
#	213131
#	223824
#	235257
#	247556
#	259732
#	269676
#
# Disc length: 3752 seconds
#
# Revision: 3
# Processed by: cddbd v1.5.2PL0 Copyright (c) Steve Scherf et al.
# Submitted via: EasyCDDAExtractor 12.0.7.1
#
DISCID=690ea61a
DTITLE=Don Gibson - A Legend In My Time
DYEAR=1965
DGENRE=Country
TTITLE0=Sittin' Here Cryin'
TTITLE1=Blue Blue Day
TTITLE2=Oh Lonesome Me
TTITLE3=I Can't Stop Loving You
TTITLE4=Look Who's Blue
TTITLE5=If You Don't Know It
TTITLE6=Bad Bad Day
TTITLE7=Sweet Sweet Girl
TTITLE8=Give Myself A Party
TTITLE9=Who Cares
TTITLE10=Didn't Work Out Did It
TTITLE11=Lonesome Old House
TTITLE12=Don't Tell Me Your Troubles
TTITLE13=I Couldn't Care Less
TTITLE14=Just One Time
TTITLE15=A Legend In My Time
TTITLE16=Far Far Away
TTITLE17=Sweet Dreams
TTITLE18=Sea Of Heartbreak
TTITLE19=I Sat Back And Let It Happen
TTITLE20=Lonesome Number One
TTITLE21=I Can Mend Your Broken Heart
TTITLE22=If You Knew Me
TTITLE23=If You Don't Know The Sorrow
TTITLE24=Think Of Me
TTITLE25=I'm Crying Inside
EXTD=
EXTT0=
EXTT1=
EXTT2=
EXTT3=
EXTT4=
EXTT5=
EXTT6=
EXTT7=
EXTT8=
EXTT9=
EXTT10=
EXTT11=
EXTT12=
EXTT13=
EXTT14=
EXTT15=
EXTT16=
EXTT17=
EXTT18=
EXTT19=
EXTT20=
EXTT21=
EXTT22=
EXTT23=
EXTT24=
EXTT25=
PLAYORDER=
